<?xml version="1.0" encoding="utf-8"?><!--Generator: Adobe Illustrator 15.0.0, SVG Export Plug-In . SVG Version: 6.00 Build 0)--><!DOCTYPE svg PUBLIC "-//W3C//DTD SVG 1.1//EN" "http://www.w3.org/Graphics/SVG/1.1/DTD/svg11.dtd"><svg version="1.1" id="Ebene_1" xmlns="http://www.w3.org/2000/svg" xmlns:xlink="http://www.w3.org/1999/xlink" x="0px" y="0px" width="340.668px" height="171.851px" viewBox="-25.862 0 340.668 171.851" enable-background="new -25.862 0 340.668 171.851" xml:space="preserve"><path fill="#D6AF3C" d="M276.625,41.314c5.727-5.752,10.059-10.56,9.768-10.852c-0.291-0.29-5.102,4.042-10.854,9.767
	c-5.752-5.725-10.562-10.056-10.854-9.765c-0.291,0.292,4.041,5.098,9.769,10.851c-5.728,5.752-10.06,10.561-9.769,10.85
	c0.291,0.295,5.101-4.039,10.854-9.763c5.752,5.724,10.562,10.058,10.854,9.765C286.682,51.875,282.352,47.066,276.625,41.314z"/><path fill="#EECC00" d="M299.262,31.241c3.438,3.414,6.299,6,6.479,5.825c0.172-0.174-2.412-3.041-5.826-6.474
	c3.414-3.432,5.998-6.3,5.824-6.473c-0.183-0.173-3.041,2.411-6.479,5.825c-3.434-3.415-6.301-5.999-6.473-5.827
	c-0.175,0.175,2.41,3.043,5.824,6.475c-3.414,3.434-5.998,6.3-5.824,6.474C292.961,37.24,295.829,34.656,299.262,31.241z"/><path fill="#EECC00" d="M282.424,14.036c2.396,2.386,4.4,4.191,4.523,4.07c0.115-0.121-1.689-2.124-4.07-4.522
	c2.389-2.396,4.188-4.399,4.064-4.521c-0.117-0.121-2.125,1.685-4.521,4.069c-2.396-2.386-4.396-4.19-4.521-4.069
	c-0.113,0.122,1.688,2.125,4.07,4.521c-2.39,2.397-4.188,4.4-4.07,4.521C278.021,18.227,280.025,16.421,282.424,14.036z"/><g><path fill="#D6AF3C" d="M21.94,67.157c6.356,0,9.665,3.196,9.665,3.196l-1.88,2.782c0,0-2.971-2.596-7.484-2.596
		c-6.244,0-10.004,4.551-10.004,10.229c0,6.17,4.212,10.418,9.779,10.418c4.588,0,7.521-3.312,7.521-3.312V84.04h-4.325v-3.229h7.71
		v13.351H29.65v-1.654c0-0.562,0.037-1.127,0.037-1.127h-0.076c0,0-2.895,3.23-8.161,3.23c-7.146,0-13.051-5.64-13.051-13.765
		C8.399,73.174,14.193,67.157,21.94,67.157z"/><path fill="#D6AF3C" d="M54.362,67.157c7.672,0,13.614,5.905,13.614,13.54c0,7.822-5.942,13.914-13.614,13.914
		c-7.673,0-13.653-6.091-13.653-13.914C40.708,73.062,46.688,67.157,54.362,67.157z M54.362,91.189
		c5.416,0,9.778-4.515,9.778-10.491c0-5.794-4.362-10.156-9.778-10.156c-5.417,0-9.817,4.362-9.817,10.156
		C44.545,86.675,48.945,91.189,54.362,91.189z"/><path fill="#D6AF3C" d="M75.651,67.609h3.723v23.315h11.885v3.234H75.651V67.609z"/><path fill="#D6AF3C" d="M99.31,67.609h8.801c8.123,0,13.463,4.853,13.463,13.236c0,8.426-5.34,13.313-13.463,13.313H99.31V67.609z
		 M107.847,90.925c5.98,0,9.891-3.533,9.891-10.078c0-6.509-3.949-10.005-9.891-10.005h-4.814v20.083H107.847z"/><path fill="#EECC00" d="M130.49,90.098c0,0,2.67,2.937,7.032,2.937c3.272,0,5.868-2.031,5.868-5.191
		c0-7.475-13.465-5.406-13.465-13.645c0-3.498,3.123-6.808,7.898-6.808c4.289,0,6.695,2.444,6.695,2.444l-0.903,1.393
		c0,0-2.257-2.26-5.755-2.26c-3.911,0-6.242,2.637-6.242,5.19c0,6.957,13.464,4.814,13.464,13.615c0,3.799-2.933,6.846-7.634,6.846
		c-5.19,0-8.049-3.271-8.049-3.271L130.49,90.098z"/><path fill="#EECC00" d="M161.107,69.338h-9.818v-1.506h21.25v1.506h-9.814V94.16h-1.617L161.107,69.338L161.107,69.338z"/><path fill="#EECC00" d="M180.665,85.059l-3.386,9.103h-1.729l9.854-26.326h1.729l9.854,26.326h-1.729l-3.422-9.103l-0.562-1.504
		l-3.98-10.683c-0.414-1.129-0.979-3.16-0.979-3.16h-0.076c0,0-0.562,2.031-0.979,3.16l-4.021,10.683L180.665,85.059z"/><path fill="#EECC00" d="M204.889,67.833h1.615v17.229c0,4.963,3.232,8.01,8.2,8.01c4.963,0,8.233-3.047,8.233-8.086v-17.15h1.614
		v17.302c0,5.793-4.021,9.479-9.812,9.479c-5.797,0-9.854-3.686-9.854-9.479L204.889,67.833L204.889,67.833z"/><path fill="#EECC00" d="M236.066,67.833h8.841c3.836,0,6.653,2.561,6.653,6.582c0,2.858-1.396,4.776-3.422,5.756v0.074
		c2.596,0.715,4.479,3.271,4.479,6.655c0,4.399-3.123,7.262-7.334,7.262h-9.221V67.833H236.066z M244.87,79.568
		c2.938,0,5.002-2.03,5.002-5.151c0-3.084-1.957-5.078-5.039-5.078h-7.146v10.229H244.87z M245.131,92.658
		c3.535,0,5.793-2.184,5.793-5.756c0-3.571-2.443-5.829-5.83-5.829h-7.406v11.584L245.131,92.658L245.131,92.658z"/></g><g><path fill="#D6AF3C" d="M-17.205,149.979h0.828l3.799,10.189c0.216,0.596,0.486,1.514,0.486,1.514h0.036
		c0,0,0.27-0.918,0.486-1.514l3.817-10.189h0.829l-4.718,12.604h-0.846L-17.205,149.979z"/><path fill="#D6AF3C" d="M-1.977,149.979h6.896v0.722h-6.122v5.168H3.82v0.721h-5.023v5.272h6.464v0.724h-7.238V149.979z"/><path fill="#D6AF3C" d="M11.001,149.979h3.691c1.17,0,1.765,0.127,2.269,0.379c1.044,0.521,1.747,1.584,1.747,3.021
		c0,1.803-1.044,3.152-2.521,3.479v0.035c0,0,0.126,0.146,0.288,0.449l2.827,5.238h-0.919L15.395,157h-3.62v5.582h-0.774V149.979z
		 M15.196,156.281c1.657,0,2.701-1.188,2.701-2.898c0-1.111-0.559-2.018-1.477-2.432c-0.36-0.162-0.756-0.252-1.765-0.252h-2.88
		v5.582H15.196z"/><path fill="#D6AF3C" d="M24.879,149.979h0.774v11.883h6.014v0.724h-6.788V149.979z"/><path fill="#D6AF3C" d="M36.74,149.979h0.774v12.604H36.74V149.979z"/><path fill="#D6AF3C" d="M44.103,149.979h6.896v0.722h-6.122v5.168H49.9v0.721h-5.023v5.272h6.464v0.724h-7.238V149.979z"/><path fill="#D6AF3C" d="M57.08,149.979h4.231c1.836,0,3.187,1.228,3.187,3.148c0,1.369-0.666,2.287-1.639,2.756v0.035
		c1.243,0.344,2.143,1.562,2.143,3.188c0,2.104-1.495,3.479-3.511,3.479H57.08V149.979z M61.293,155.596
		c1.405,0,2.395-0.973,2.395-2.469c0-1.479-0.937-2.43-2.413-2.43h-3.421v4.895L61.293,155.596L61.293,155.596z M61.419,161.861
		c1.693,0,2.773-1.043,2.773-2.754s-1.17-2.791-2.791-2.791h-3.547v5.545H61.419z"/><path fill="#D6AF3C" d="M73.767,150.699h-4.699v-0.721H79.24v0.721h-4.699v11.885h-0.774V150.699z"/><path fill="#D6AF3C" d="M91.712,149.979h0.774v12.604h-0.774V149.979z"/><path fill="#D6AF3C" d="M99.073,149.979h0.721l7.184,9.888c0.414,0.573,1.026,1.584,1.026,1.584h0.036c0,0-0.09-0.955-0.09-1.584
		v-9.888h0.774v12.604h-0.721l-7.184-9.885c-0.414-0.576-1.026-1.589-1.026-1.589h-0.036c0,0,0.09,0.953,0.09,1.589v9.885h-0.774
		V149.979z"/><path fill="#D6AF3C" d="M122.581,160.639c0,0,1.278,1.402,3.367,1.402c1.566,0,2.809-0.977,2.809-2.484
		c0-3.582-6.446-2.594-6.446-6.535c0-1.674,1.495-3.26,3.781-3.26c2.053,0,3.205,1.172,3.205,1.172l-0.432,0.666
		c0,0-1.081-1.08-2.755-1.08c-1.873,0-2.989,1.263-2.989,2.482c0,3.33,6.446,2.307,6.446,6.52c0,1.816-1.404,3.275-3.655,3.275
		c-2.484,0-3.853-1.564-3.853-1.564L122.581,160.639z"/><path fill="#D6AF3C" d="M140.637,149.762c2.989,0,4.501,1.586,4.501,1.586l-0.468,0.574c0,0-1.495-1.424-4.015-1.424
		c-3.097,0-5.456,2.434-5.456,5.688c0,3.272,2.34,5.869,5.509,5.869c2.701,0,4.268-1.709,4.268-1.709l0.486,0.538
		c0,0-1.693,1.904-4.754,1.904c-3.673,0-6.32-2.951-6.32-6.604C134.388,152.533,137.09,149.762,140.637,149.762z"/><path fill="#D6AF3C" d="M151.147,149.979h0.774v5.924h7.995v-5.924h0.774v12.604h-0.774v-5.961h-7.995v5.961h-0.774V149.979z"/><path fill="#D6AF3C" d="M184.843,149.979h0.722l7.186,9.888c0.414,0.573,1.023,1.584,1.023,1.584h0.037c0,0-0.09-0.955-0.09-1.584
		v-9.888h0.772v12.604h-0.722l-7.187-9.885c-0.415-0.576-1.024-1.589-1.024-1.589h-0.035c0,0,0.09,0.953,0.09,1.589v9.885h-0.774
		v-12.604H184.843z"/><path fill="#D6AF3C" d="M201.079,149.979h6.896v0.722h-6.121v5.168h5.021v0.721h-5.021v5.272h6.462v0.724h-7.232L201.079,149.979
		L201.079,149.979z"/><path fill="#D6AF3C" d="M213.643,160.639c0,0,1.277,1.402,3.367,1.402c1.566,0,2.809-0.977,2.809-2.484
		c0-3.582-6.438-2.594-6.438-6.535c0-1.674,1.494-3.26,3.779-3.26c2.053,0,3.2,1.172,3.2,1.172l-0.432,0.666
		c0,0-1.08-1.08-2.756-1.08c-1.873,0-2.988,1.263-2.988,2.482c0,3.33,6.445,2.307,6.445,6.52c0,1.816-1.404,3.275-3.654,3.275
		c-2.479,0-3.854-1.564-3.854-1.564L213.643,160.639z"/><path fill="#D6AF3C" d="M233.982,149.979h0.771v5.924h7.994v-5.924h0.771v12.604h-0.771v-5.961h-7.994v5.961h-0.771V149.979z"/><path fill="#D6AF3C" d="M256.286,158.225h-5.349l-1.619,4.355h-0.827l4.717-12.604h0.828l4.717,12.604h-0.828L256.286,158.225z
		 M253.604,150.878c0,0-0.27,0.974-0.467,1.515l-1.928,5.112h4.809l-1.91-5.112c-0.19-0.541-0.467-1.515-0.467-1.515H253.604z"/><path fill="#D6AF3C" d="M269.895,158.225h-5.348l-1.621,4.355H262.1l4.717-12.604h0.828l4.718,12.604h-0.822L269.895,158.225z
		 M267.211,150.878c0,0-0.271,0.974-0.467,1.515l-1.93,5.112h4.811l-1.91-5.112c-0.195-0.541-0.467-1.515-0.467-1.515H267.211z"/><path fill="#D6AF3C" d="M277.327,149.979h3.69c1.17,0,1.765,0.127,2.269,0.379c1.045,0.521,1.748,1.584,1.748,3.021
		c0,1.803-1.046,3.152-2.521,3.479v0.035c0,0,0.127,0.146,0.286,0.449l2.828,5.238h-0.918l-2.987-5.58h-3.619v5.582h-0.771
		L277.327,149.979L277.327,149.979z M281.521,156.281c1.65,0,2.701-1.188,2.701-2.898c0-1.111-0.562-2.018-1.479-2.432
		c-0.359-0.162-0.759-0.252-1.767-0.252H278.1v5.582H281.521z"/></g><g><path fill="#D6AF3C" d="M172.767,149.761c3.511,0,6.374,2.81,6.374,6.429c0,3.709-2.863,6.607-6.374,6.607
		c-3.511,0-6.374-2.898-6.374-6.607C166.394,152.57,169.256,149.761,172.767,149.761z M172.767,162.059
		c3.079,0,5.564-2.557,5.564-5.869c0-3.224-2.485-5.688-5.564-5.688s-5.563,2.467-5.563,5.688
		C167.204,159.503,169.688,162.059,172.767,162.059z M171.129,147.079h0.828v1.313h-0.828V147.079z M173.596,147.079h0.828v1.313
		h-0.828V147.079z"/></g></svg>